HIERARCHY
ROOT hip
{
  OFFSET 0 0 0
  CHANNELS 6 Xposition Yposition Zposition Zrotation Yrotation Xrotation
  JOINT abdomen
  {
    OFFSET 0 20.6881 -0.73152
    CHANNELS 3 Zrotation Xrotation Yrotation
    JOINT chest
    {
      OFFSET 0 11.7043 -0.48768
      CHANNELS 3 Zrotation Xrotation Yrotation
      JOINT neck
      {
        OFFSET 0 22.1894 -2.19456
        CHANNELS 3 Zrotation Xrotation Yrotation
        JOINT head
        {
          OFFSET -0.24384 7.07133 1.2192
          CHANNELS 3 Zrotation Xrotation Yrotation
          JOINT leftEye
          {
            OFFSET 4.14528 8.04674 8.04672
            CHANNELS 3 Zrotation Xrotation Yrotation
            End Site
            {
              OFFSET 1 0 0
            }
          }
          JOINT rightEye
          {
            OFFSET -3.6576 8.04674 8.04672
            CHANNELS 3 Zrotation Xrotation Yrotation
            End Site
            {
              OFFSET 1 0 0
            }
          }
        }
      }
      JOINT rCollar
      {
        OFFSET -2.68224 19.2634 -4.8768
        CHANNELS 3 Zrotation Xrotation Yrotation
        JOINT rShldr
        {
          OFFSET -8.77824 -1.95073 1.46304
          CHANNELS 3 Zrotation Xrotation Yrotation
          JOINT rForeArm
          {
            OFFSET -28.1742 -1.7115 0.48768
            CHANNELS 3 Zrotation Xrotation Yrotation
            JOINT rHand
            {
              OFFSET -22.5879 0.773209 7.07136
              CHANNELS 3 Zrotation Xrotation Yrotation
              JOINT rThumb1
              {
                OFFSET -1.2192 -0.487915 3.41376
                CHANNELS 3 Zrotation Xrotation Yrotation
                JOINT rThumb2
                {
                  OFFSET -3.37035 -0.52449 3.41376
                  CHANNELS 3 Zrotation Xrotation Yrotation
                  End Site
                  {
                    OFFSET -1.78271 -1.18214 1.43049
                  }
                }
              }
              JOINT rIndex1
              {
                OFFSET -7.75947 0.938293 5.60832
                CHANNELS 3 Zrotation Xrotation Yrotation
                JOINT rIndex2
                {
                  OFFSET -2.54057 -0.884171 1.56538
                  CHANNELS 3 Zrotation Xrotation Yrotation
                  End Site
                  {
                    OFFSET -1.62519 -0.234802 1.16502
                  }
                }
              }
              JOINT rMid1
              {
                OFFSET -8.24714 1.18213 3.41376
                CHANNELS 3 Zrotation Xrotation Yrotation
                JOINT rMid2
                {
                  OFFSET -3.10165 -0.590103 1.0647
                  CHANNELS 3 Zrotation Xrotation Yrotation
                  End Site
                  {
                    OFFSET -2.48547 -0.328903 0.83742
                  }
                }
              }
              JOINT rRing1
              {
                OFFSET -8.82822 0.546677 1.51678
                CHANNELS 3 Zrotation Xrotation Yrotation
                JOINT rRing2
                {
                  OFFSET -2.60934 -0.819778 -0.0198488
                  CHANNELS 3 Zrotation Xrotation Yrotation
                  End Site
                  {
                    OFFSET -2.33842 -0.294052 0.168128
                  }
                }
              }
              JOINT rPinky1
              {
                OFFSET -8.27202 -0.0477905 -0.4584
                CHANNELS 3 Zrotation Xrotation Yrotation
                JOINT rPinky2
                {
                  OFFSET -1.82734 -0.647385 -0.700984
                  CHANNELS 3 Zrotation Xrotation Yrotation
                  End Site
                  {
                    OFFSET -1.69225 -0.51767 -0.607171
                  }
                }
              }
            }
          }
        }
      }
      JOINT lCollar
      {
        OFFSET 2.68224 19.2634 -4.8768
        CHANNELS 3 Zrotation Xrotation Yrotation
        JOINT lShldr
        {
          OFFSET 8.77824 -1.95073 1.46304
          CHANNELS 3 Zrotation Xrotation Yrotation
          JOINT lForeArm
          {
            OFFSET 28.1742 -1.7115 0.48768
            CHANNELS 3 Zrotation Xrotation Yrotation
            JOINT lHand
            {
              OFFSET 22.5879 0.773209 7.07136
              CHANNELS 3 Zrotation Xrotation Yrotation
              JOINT lThumb1
              {
                OFFSET 1.2192 -0.487915 3.41376
                CHANNELS 3 Zrotation Xrotation Yrotation
                JOINT lThumb2
                {
                  OFFSET 3.37035 -0.52449 3.41376
                  CHANNELS 3 Zrotation Xrotation Yrotation
                  End Site
                  {
                    OFFSET 1.78271 -1.18214 1.43049
                  }
                }
              }
              JOINT lIndex1
              {
                OFFSET 7.75947 0.938293 5.60832
                CHANNELS 3 Zrotation Xrotation Yrotation
                JOINT lIndex2
                {
                  OFFSET 2.54057 -0.884171 1.56538
                  CHANNELS 3 Zrotation Xrotation Yrotation
                  End Site
                  {
                    OFFSET 1.62519 -0.234802 1.16502
                  }
                }
              }
              JOINT lMid1
              {
                OFFSET 8.24714 1.18213 3.41376
                CHANNELS 3 Zrotation Xrotation Yrotation
                JOINT lMid2
                {
                  OFFSET 3.10165 -0.590103 1.0647
                  CHANNELS 3 Zrotation Xrotation Yrotation
                  End Site
                  {
                    OFFSET 2.48547 -0.328903 0.83742
                  }
                }
              }
              JOINT lRing1
              {
                OFFSET 8.82822 0.546677 1.51678
                CHANNELS 3 Zrotation Xrotation Yrotation
                JOINT lRing2
                {
                  OFFSET 2.60934 -0.819778 -0.0198488
                  CHANNELS 3 Zrotation Xrotation Yrotation
                  End Site
                  {
                    OFFSET 2.33842 -0.294052 0.168128
                  }
                }
              }
              JOINT lPinky1
              {
                OFFSET 8.27202 -0.0477905 -0.4584
                CHANNELS 3 Zrotation Xrotation Yrotation
                JOINT lPinky2
                {
                  OFFSET 1.82734 -0.647385 -0.700984
                  CHANNELS 3 Zrotation Xrotation Yrotation
                  End Site
                  {
                    OFFSET 1.69225 -0.51767 -0.607171
                  }
                }
              }
            }
          }
        }
      }
    }
  }
  JOINT rButtock
  {
    OFFSET -8.77824 4.35084 1.2192
    CHANNELS 3 Zrotation Xrotation Yrotation
    JOINT rThigh
    {
      OFFSET 0 -1.70687 -2.19456
      CHANNELS 3 Zrotation Xrotation Yrotation
      JOINT rShin
      {
        OFFSET 0 -36.8199 0.73152
        CHANNELS 3 Zrotation Xrotation Yrotation
        JOINT rFoot
        {
          OFFSET 0.73152 -45.1104 -5.12064
          CHANNELS 3 Zrotation Xrotation Yrotation
          End Site
          {
            OFFSET -1.1221 -3.69964 12.103
          }
        }
      }
    }
  }
  JOINT lButtock
  {
    OFFSET 8.77824 4.35084 1.2192
    CHANNELS 3 Zrotation Xrotation Yrotation
    JOINT lThigh
    {
      OFFSET 0 -1.70687 -2.19456
      CHANNELS 3 Zrotation Xrotation Yrotation
      JOINT lShin
      {
        OFFSET 0 -36.8199 0.73152
        CHANNELS 3 Zrotation Xrotation Yrotation
        JOINT lFoot
        {
          OFFSET -0.73152 -45.1104 -5.12064
          CHANNELS 3 Zrotation Xrotation Yrotation
          End Site
          {
            OFFSET 1.1221 -3.69964 12.103
          }
        }
      }
    }
  }
}
MOTION
Frames:	4
Frame Time:	0.03333
-0.5840000097523443 54.019500732421875 14.249329946935177 -17.121500372886658 -23.586098849773407 12.094199806451797 14.968400001525879 6.20871976017952 8.148119822144508 -0.7575030159205198 -6.396239697933197 2.20850994810462 -2.0009599439799786 12.919700592756271 3.0325299873948097 3.2634199038147926 -25.86210072040558 6.88102014362812 0.0 0.0 0.0 0.0 0.0 0.0 0.0 0.0 -3.197442310920451e-13 57.757498025894165 47.296501994132996 -1.8889700062572956 -28.28039914369583 -38.51880133152008 81.31089806556702 -0.05157469888217747 6.320360004901886 0.8921049814671278 2.2893686946190428e-10 -8.847962362779072e-09 2.689048983484099e-10 3.9904080040287226e-10 -1.5235173123073764e-08 4.645883677767415e-10 2.2893686946190428e-10 -8.847962362779072e-09 2.689048983484099e-10 7.7309102565050125 5.474880114197731 0.41731400415301323 2.2893686946190428e-10 -8.847962362779072e-09 2.689048983484099e-10 2.905540131032467 0.9651830233633518 0.102901995414868 2.2893686946190428e-10 -8.847962362779072e-09 2.689048983484099e-10 10.27859978377819 0.7318009994924068 0.025912300043273717 2.2893686946190428e-10 -8.847962362779072e-09 2.689048983484099e-10 2.221670038998127 -0.733487019315362 -0.2089200052432716 0.0 0.0 -3.197442310920451e-13 -57.51019835472107 27.853300273418427 -22.756301164627075 27.961299419403076 -40.61319887638092 -85.02840220928192 0.722146974876523 -23.40059995651245 3.4867701306939125 9.976020010071807e-10 -1.3582734936790075e-09 2.4920865371313994e-09 1.6780177247710526e-09 -2.176818725274643e-09 4.32773816783083e-09 9.976020010071807e-10 -1.3582734936790075e-09 2.4920865371313994e-09 -7.7309102565050125 5.474880114197731 -0.41731400415301323 9.976020010071807e-10 -1.3582734936790075e-09 2.4920865371313994e-09 -2.905540131032467 0.9651830233633518 -0.102901995414868 9.976020010071807e-10 -1.3582734936790075e-09 2.4920865371313994e-09 -10.27859978377819 0.7318009994924068 -0.025912300043273717 9.976020010071807e-10 -1.3582734936790075e-09 2.4920865371313994e-09 -2.221670038998127 -0.733487019315362 0.2089200052432716 0.0 0.0 0.0 -2.5136100500822067 2.971160039305687 -8.90547975897789 -0.11686499929055572 46.7428994178772 2.9024800658226013 -15.424000024795532 -20.15359953045845 -38.79669964313507 0.0 0.0 0.0 83.13529908657074 -57.3824018239975 79.31100010871887 6.9458699226379395 81.50559961795807 -6.369260028004646 1.7657999508082867 -1.7705600336194038 4.927049987018108
-0.6715000082622282 53.98210144042969 14.712109945714474 -17.187199741601944 -23.71890038251877 12.684599608182907 14.858799576759338 6.172009706497192 8.58445018529892 -0.8040860295295715 -6.538899689912796 2.322630062699318 -2.0777899771928787 12.78659999370575 3.0232401564717293 3.057730011641979 -26.496700644493103 6.8544602394104 0.0 0.0 0.0 0.0 0.0 0.0 0.0 0.0 0.0 53.84619891643524 47.26119875907898 3.485339842736721 -28.266499936580658 -38.65330070257187 81.54069900512695 -0.04140139964874834 5.7975297421216965 0.8176089730113745 6.855316314613447e-10 -1.4557315353158629e-08 3.3509195418446325e-10 1.1868905858136714e-09 -2.5073063625313807e-08 5.822542448186141e-10 6.855316314613447e-10 -1.4557315353158629e-08 3.3509195418446325e-10 7.7309102565050125 5.474880114197731 0.41731400415301323 6.855316314613447e-10 -1.4557315353158629e-08 3.3509195418446325e-10 2.905540131032467 0.9651830233633518 0.102901995414868 6.855316314613447e-10 -1.4557315353158629e-08 3.3509195418446325e-10 10.27859978377819 0.7318009994924068 0.025912300043273717 6.855316314613447e-10 -1.4557315353158629e-08 3.3509195418446325e-10 2.221670038998127 -0.733487019315362 -0.2089200052432716 0.0 0.0 0.0 -57.420199513435364 27.026900947093964 -21.262899488210678 27.877601087093353 -41.01630002260208 -85.7628983259201 0.7474119588732719 -23.774599134922028 3.5495398566126823 1.212470124301035e-09 -8.134293238981627e-10 4.239488760049426e-09 2.0156676328042522e-09 -1.1254996934439987e-09 7.352838338192669e-09 1.212470124301035e-09 -8.134293238981627e-10 4.239488760049426e-09 -7.7309102565050125 5.474880114197731 -0.41731400415301323 1.212470124301035e-09 -8.134293238981627e-10 4.239488760049426e-09 -2.905540131032467 0.9651830233633518 -0.102901995414868 1.212470124301035e-09 -8.134293238981627e-10 4.239488760049426e-09 -10.27859978377819 0.7318009994924068 -0.025912300043273717 1.212470124301035e-09 -8.134293238981627e-10 4.239488760049426e-09 -2.221670038998127 -0.733487019315362 0.2089200052432716 0.0 0.0 0.0 -2.526580039411783 2.959129996597767 -8.696400225162506 -0.10409500217065215 46.07160151004791 2.876639999449253 -15.27170017361641 -20.059799998998642 -38.63950073719025 0.0 0.0 0.0 84.06459867954254 -57.18059778213501 81.44339919090271 7.296150326728821 81.86689853668213 -6.726919859647751 2.245649993419647 -1.6091800667345524 7.584550157189369
-0.7759000097285025 54.01649856567383 15.300709925591946 -17.36479952931404 -23.946601152420044 13.463699519634247 14.779699891805649 5.866579860448837 9.313270077109337 -0.8346580155193806 -6.727200150489807 2.511549945920706 -2.178670037537813 12.676700502634048 2.9367999359965324 3.012690022587776 -26.969000101089478 6.702989861369133 0.0 0.0 0.0 0.0 0.0 0.0 0.0 0.0 3.197442310920451e-13 49.951202273368835 47.07159876823425 9.187729954719543 -28.23250025510788 -38.93980085849762 82.04070031642914 -0.039647098747082055 5.4843999445438385 0.773528041318059 2.674340748853865e-09 -9.617906471248716e-10 -2.354916261992912e-09 4.604316927725449e-09 -1.8519585864851251e-09 -4.080895621427771e-09 2.674340748853865e-09 -9.617906471248716e-10 -2.354916261992912e-09 7.7309102565050125 5.474880114197731 0.41731400415301323 2.674340748853865e-09 -9.617906471248716e-10 -2.354916261992912e-09 2.905540131032467 0.9651830233633518 0.102901995414868 2.674340748853865e-09 -9.617906471248716e-10 -2.354916261992912e-09 10.27859978377819 0.7318009994924068 0.025912300043273717 2.674340748853865e-09 -9.617906471248716e-10 -2.354916261992912e-09 2.221670038998127 -0.733487019315362 -0.2089200052432716 0.0 0.0 3.197442310920451e-13 -57.4789023399353 26.429699063301086 -19.432299882173538 27.78379887342453 -41.42720103263855 -86.52109980583191 0.7570280134677887 -23.91450047492981 3.5731201618909836 -9.592326932761353e-10 4.693845312431222e-09 1.1820944223472907e-09 -1.6767387478466844e-09 8.162430731317727e-09 2.022382261657185e-09 -9.592326932761353e-10 4.693845312431222e-09 1.1820944223472907e-09 -7.7309102565050125 5.474880114197731 -0.41731400415301323 -9.592326932761353e-10 4.693845312431222e-09 1.1820944223472907e-09 -2.905540131032467 0.9651830233633518 -0.102901995414868 -9.592326932761353e-10 4.693845312431222e-09 1.1820944223472907e-09 -10.27859978377819 0.7318009994924068 -0.025912300043273717 -9.592326932761353e-10 4.693845312431222e-09 1.1820944223472907e-09 -2.221670038998127 -0.733487019315362 0.2089200052432716 0.0 0.0 0.0 -2.262839935719967 3.147899843752384 -8.326730132102966 -0.08292300102766603 44.846298694610596 2.827640064060688 -15.049299448728561 -19.870300590991974 -38.4772002696991 0.0 0.0 0.0 85.04290223121643 -56.8028998374939 84.00299906730652 7.496860027313232 82.06840217113495 -6.938159912824631 2.8490501269698143 -1.548550073057413 10.735500007867813
-0.8779000078211538 54.137699127197266 16.017839930951595 -17.509499341249466 -23.87649893760681 14.323799461126328 14.576699584722519 5.359859950840473 10.188600271940231 -0.8527760021388531 -6.9471801817417145 2.736260052770376 -2.3102499917149544 12.570199370384216 2.7326499670743942 3.1575199216604233 -27.398099899291992 6.3632699847221375 0.0 0.0 0.0 0.0 0.0 0.0 0.0 0.0 6.394884621840902e-13 46.20570123195648 46.64969801902771 14.932600557804108 -28.18069875240326 -39.323700070381165 82.71819949150085 -0.04308429983211681 5.913670063018799 0.834105983376503 3.3240610264329007e-09 1.0722942533902824e-08 -4.005915599236687e-09 5.718305828850134e-09 1.814868255678448e-08 -6.9402084079683846e-09 3.3240610264329007e-09 1.0722942533902824e-08 -4.005915599236687e-09 7.7309102565050125 5.474880114197731 0.41731400415301323 3.3240610264329007e-09 1.0722942533902824e-08 -4.005915599236687e-09 2.905540131032467 0.9651830233633518 0.102901995414868 3.3240610264329007e-09 1.0722942533902824e-08 -4.005915599236687e-09 10.27859978377819 0.7318009994924068 0.025912300043273717 3.3240610264329007e-09 1.0722942533902824e-08 -4.005915599236687e-09 2.221670038998127 -0.733487019315362 -0.2089200052432716 0.0 0.0 6.394884621840902e-13 -57.70899832248688 25.927699506282806 -17.33859971165657 27.676700949668884 -41.86190128326416 -87.32810139656067 0.7539419643580914 -23.870700001716614 3.56570016592741 -2.5349322640977334e-09 7.597122930746991e-09 -2.0549961732285738e-09 -4.338289727456868e-09 1.2948362382303458e-08 -3.6049563334472623e-09 -2.5349322640977334e-09 7.597122930746991e-09 -2.0549961732285738e-09 -7.7309102565050125 5.474880114197731 -0.41731400415301323 -2.5349322640977334e-09 7.597122930746991e-09 -2.0549961732285738e-09 -2.905540131032467 0.9651830233633518 -0.102901995414868 -2.5349322640977334e-09 7.597122930746991e-09 -2.0549961732285738e-09 -10.27859978377819 0.7318009994924068 -0.025912300043273717 -2.5349322640977334e-09 7.597122930746991e-09 -2.0549961732285738e-09 -2.221670038998127 -0.733487019315362 0.2089200052432716 0.0 0.0 0.0 -1.8598299846053123 3.5164501145482063 -7.870920225977898 -0.05880909855477512 43.311501145362854 2.7660300582647324 -14.757599830627441 -19.676199853420258 -38.18239867687225 0.0 0.0 0.0 85.51350116729736 -56.51860177516937 86.18460059165955 7.37541027367115 81.9836014509201 -6.859339848160744 3.568659983575344 -1.8191400356590748 14.056899547576904
